<svg width="39" height="36" viewBox="0 0 39 36" fill="none" xmlns="http://www.w3.org/2000/svg">
<path fill-rule="evenodd" clip-rule="evenodd" d="M16.584 35.3345H4.85396C2.20701 35.3345 0.0616455 33.7533 0.0616455 31.8025V21.9942C0.0616455 20.2871 1.71819 18.8248 3.99613 18.5199C7.37312 18.0666 13.1958 17.2861 16.4897 16.8458C18.3028 16.602 20.159 16.602 21.9721 16.8458C25.266 17.2861 31.0887 18.0666 34.4657 18.5199C36.7436 18.8248 38.4002 20.2871 38.4002 21.9942C38.4002 24.562 38.4002 29.0546 38.4002 31.8025C38.4002 33.7533 36.2548 35.3345 33.6079 35.3345H16.584ZM31.7357 20.5473L31.7421 20.5532C32.0216 20.8616 32.0871 21.2489 31.9194 21.5986L30.7916 23.9533C30.6446 24.2605 30.3299 24.5102 29.9242 24.6408L27.8028 25.3225L28.6462 26.5669C28.8826 26.9142 28.8698 27.3251 28.6143 27.6654L24.6079 32.9798H33.6079C34.4896 32.9798 35.2053 32.4524 35.2053 31.8025C35.2053 29.0546 35.2053 24.562 35.2053 21.9942C35.2053 21.4256 34.6526 20.9381 33.8938 20.8357L31.7357 20.5473ZM27.3667 19.961L21.4002 19.1616C19.9657 18.9697 18.4961 18.9697 17.0616 19.1616L11.0952 19.961L9.8204 21.3702L10.4514 22.6865L13.4801 23.6589C13.8811 23.7884 14.1926 24.0333 14.3428 24.3371C14.4929 24.6408 14.4657 24.9764 14.2693 25.2648L13.0488 27.0638L17.5089 32.9798H20.953L25.413 27.0638L24.1926 25.2648C23.9961 24.9764 23.9689 24.6408 24.1191 24.3371C24.2692 24.0333 24.5807 23.7884 24.9817 23.6589L28.0104 22.6865L28.6414 21.3702L27.3667 19.961ZM6.72616 20.5473L4.56802 20.8357C3.80924 20.9381 3.25652 21.4256 3.25652 21.9942V31.8025C3.25652 32.4524 3.97218 32.9798 4.85396 32.9798H13.8539L9.84756 27.6654C9.59196 27.3251 9.57919 26.9142 9.81561 26.5669L10.6591 25.3225L8.53766 24.6408C8.13191 24.5102 7.81721 24.2605 7.67025 23.9533L6.54245 21.5986C6.37472 21.2489 6.44022 20.8616 6.71977 20.5532L6.72616 20.5473ZM30.413 27.0932V29.4478C30.413 30.0977 31.1286 30.6252 32.0104 30.6252C32.8922 30.6252 33.6079 30.0977 33.6079 29.4478V27.0932C33.6079 26.4433 32.8922 25.9159 32.0104 25.9159C31.1286 25.9159 30.413 26.4433 30.413 27.0932ZM19.2309 0.0147095C13.5009 0.0147095 8.84756 3.44426 8.84756 7.66733C8.84756 11.8904 13.5009 15.3199 19.2309 15.3199C24.9609 15.3199 29.6143 11.8904 29.6143 7.66733C29.6143 3.44426 24.9609 0.0147095 19.2309 0.0147095ZM19.2309 2.36936C23.1989 2.36936 26.4194 4.74285 26.4194 7.66733C26.4194 10.5918 23.1989 12.9653 19.2309 12.9653C15.2629 12.9653 12.0424 10.5918 12.0424 7.66733C12.0424 4.74285 15.2629 2.36936 19.2309 2.36936Z" fill="white"/>
</svg>
