<svg width="39" height="36" viewBox="0 0 39 36" fill="none" xmlns="http://www.w3.org/2000/svg">
<path fill-rule="evenodd" clip-rule="evenodd" d="M0.472778 31.9651C0.472778 33.9159 2.61814 35.4971 5.26509 35.4971H34.019C36.6659 35.4971 38.8113 33.9159 38.8113 31.9651C38.8113 29.2172 38.8113 24.7246 38.8113 22.1568C38.8113 20.4497 37.1548 18.9874 34.8768 18.6825C31.4998 18.2292 25.6772 17.4487 22.3833 17.0084C20.5702 16.7646 18.7139 16.7646 16.9008 17.0084C13.6069 17.4487 7.78425 18.2292 4.40727 18.6825C2.12932 18.9874 0.472778 20.4497 0.472778 22.1568V31.9651ZM23.3289 19.5278L25.7267 26.2468C26.0414 27.1287 25.6197 28.0646 24.6516 28.6345C23.8337 29.1148 22.5446 29.873 21.65 30.4004C20.4759 31.0904 18.8082 31.0904 17.6341 30.4004C16.7395 29.873 15.4504 29.1148 14.6325 28.6345C13.6644 28.0646 13.2427 27.1287 13.5574 26.2468L15.9552 19.5278L4.97915 20.9983C4.22037 21.1007 3.66766 21.5882 3.66766 22.1568V31.9651C3.66766 32.615 4.38331 33.1424 5.26509 33.1424C11.9488 33.1424 27.3353 33.1424 34.019 33.1424C34.9008 33.1424 35.6164 32.615 35.6164 31.9651C35.6164 29.2172 35.6164 24.7246 35.6164 22.1568C35.6164 21.5882 35.0637 21.1007 34.3049 20.9983L23.3289 19.5278ZM19.9024 19.1829C19.7283 19.1793 19.5558 19.1793 19.3817 19.1829L16.6596 26.8143L19.6277 28.5591C19.6356 28.565 19.6484 28.565 19.6564 28.5591L22.6245 26.8143L19.9024 19.1829ZM19.642 0.177307C13.912 0.177307 9.25869 3.60686 9.25869 7.82992C9.25869 12.053 13.912 15.4825 19.642 15.4825C25.3721 15.4825 30.0254 12.053 30.0254 7.82992C30.0254 3.60686 25.3721 0.177307 19.642 0.177307ZM19.642 2.53196C23.6101 2.53196 26.8305 4.90545 26.8305 7.82992C26.8305 10.7544 23.6101 13.1279 19.642 13.1279C15.674 13.1279 12.4536 10.7544 12.4536 7.82992C12.4536 4.90545 15.674 2.53196 19.642 2.53196Z" fill="white"/>
</svg>
